<?xml version="1.0" encoding="UTF-8" standalone="no"?>
<!-- Created with Inkscape (http://www.inkscape.org/) -->

<svg
   xmlns:dc="http://purl.org/dc/elements/1.1/"
   xmlns:cc="http://creativecommons.org/ns#"
   xmlns:rdf="http://www.w3.org/1999/02/22-rdf-syntax-ns#"
   xmlns:svg="http://www.w3.org/2000/svg"
   xmlns="http://www.w3.org/2000/svg"
   xmlns:xlink="http://www.w3.org/1999/xlink"
   xmlns:sodipodi="http://sodipodi.sourceforge.net/DTD/sodipodi-0.dtd"
   xmlns:inkscape="http://www.inkscape.org/namespaces/inkscape"
   width="96"
   height="96"
   id="svg2"
   version="1.1"
   inkscape:version="0.48.4 r9939"
   sodipodi:docname="eyes-background.svg">
  <defs
     id="defs4">
    <radialGradient
       inkscape:collect="always"
       xlink:href="#linearGradient4388"
       id="radialGradient4394"
       cx="26.975901"
       cy="1019.7424"
       fx="26.975901"
       fy="1019.7424"
       r="20.252907"
       gradientTransform="matrix(1.3404099,0.36659529,-0.29604481,1.0824509,293.14282,-94.5333)"
       gradientUnits="userSpaceOnUse" />
    <linearGradient
       id="linearGradient4388">
      <stop
         style="stop-color:#80f880;stop-opacity:1;"
         offset="0"
         id="stop4390" />
      <stop
         style="stop-color:#448f44;stop-opacity:1;"
         offset="1"
         id="stop4392" />
    </linearGradient>
    <radialGradient
       inkscape:collect="always"
       xlink:href="#linearGradient4396"
       id="radialGradient4402"
       cx="69.112579"
       cy="1018.3737"
       fx="69.112579"
       fy="1018.3737"
       r="20.253036"
       gradientTransform="matrix(1.3578701,-0.56645678,0.42865657,1.0275452,-461.61413,10.31241)"
       gradientUnits="userSpaceOnUse" />
    <linearGradient
       id="linearGradient4396">
      <stop
         style="stop-color:#f88080;stop-opacity:1;"
         offset="0"
         id="stop4398" />
      <stop
         style="stop-color:#8f4444;stop-opacity:1;"
         offset="1"
         id="stop4400" />
    </linearGradient>
    <radialGradient
       inkscape:collect="always"
       xlink:href="#linearGradient4404"
       id="radialGradient4410"
       cx="47.999893"
       cy="981.36011"
       fx="47.999893"
       fy="981.36011"
       r="42.254887"
       gradientTransform="matrix(1,0,0,0.47929086,-2.5201967e-6,511.00318)"
       gradientUnits="userSpaceOnUse" />
    <linearGradient
       id="linearGradient4404">
      <stop
         style="stop-color:#8080f8;stop-opacity:1;"
         offset="0"
         id="stop4406" />
      <stop
         style="stop-color:#44448f;stop-opacity:1;"
         offset="1"
         id="stop4408" />
    </linearGradient>
    <radialGradient
       r="42.254887"
       fy="955.91083"
       fx="12.467776"
       cy="955.91083"
       cx="12.467776"
       gradientTransform="matrix(1,0,0,0.64697221,2.8e-4,350.71476)"
       gradientUnits="userSpaceOnUse"
       id="radialGradient4402-4"
       xlink:href="#linearGradient4221"
       inkscape:collect="always" />
    <linearGradient
       id="linearGradient4221">
      <stop
         style="stop-color:#ffffff;stop-opacity:0.91925466;"
         offset="0"
         id="stop4223" />
      <stop
         style="stop-color:#ffffff;stop-opacity:0;"
         offset="1"
         id="stop4225" />
    </linearGradient>
    <radialGradient
       r="20.252907"
       fy="1012.9687"
       fx="14.683672"
       cy="1012.9687"
       cx="14.683672"
       gradientTransform="matrix(1.3230681,0,0,1.4458191,-8.278816,-452.9939)"
       gradientUnits="userSpaceOnUse"
       id="radialGradient4442"
       xlink:href="#linearGradient4221"
       inkscape:collect="always" />
    <radialGradient
       r="20.253036"
       fy="1014.2455"
       fx="59.260994"
       cy="1014.2455"
       cx="59.260994"
       gradientTransform="matrix(1.2527441,0,0,1.4455842,-16.788207,-453.1854)"
       gradientUnits="userSpaceOnUse"
       id="radialGradient4476"
       xlink:href="#linearGradient4221"
       inkscape:collect="always" />
    <radialGradient
       inkscape:collect="always"
       xlink:href="#linearGradient4368"
       id="radialGradient4374"
       cx="47.584438"
       cy="1005.2767"
       fx="47.584438"
       fy="1005.2767"
       r="39.75544"
       gradientTransform="matrix(1,0,0,0.66316779,-2.5201967e-6,338.60956)"
       gradientUnits="userSpaceOnUse" />
    <linearGradient
       id="linearGradient4368">
      <stop
         style="stop-color:#ffffff;stop-opacity:1;"
         offset="0"
         id="stop4370" />
      <stop
         style="stop-color:#bebebe;stop-opacity:1;"
         offset="1"
         id="stop4372" />
    </linearGradient>
    <linearGradient
       inkscape:collect="always"
       xlink:href="#linearGradient4376-2"
       id="linearGradient4163"
       gradientUnits="userSpaceOnUse"
       x1="-65.96875"
       y1="1117.7372"
       x2="-3.59375"
       y2="1117.7372" />
    <linearGradient
       id="linearGradient4376-2">
      <stop
         style="stop-color:#e0e0a0;stop-opacity:1;"
         offset="0"
         id="stop4378-6" />
      <stop
         style="stop-color:#e0e0a0;stop-opacity:0;"
         offset="1"
         id="stop4380-0" />
    </linearGradient>
    <clipPath
       clipPathUnits="userSpaceOnUse"
       id="clipPath4157">
      <path
         style="fill:#ffffff;stroke:#000000;stroke-width:0.54845542px;stroke-linecap:butt;stroke-linejoin:miter;stroke-opacity:1"
         d="m -33.529076,1099.4401 c -19.11824,0 -34.617753,8.0145 -34.617753,17.9277 0,9.6118 14.591269,17.4594 32.904316,17.9276 5.889184,6.548 15.782192,10.2981 32.8408583,9.8364 -6.9961179,-3.0532 -13.4701233,-6.0105 -16.2459133,-11.5498 11.6631098,-2.8871 19.7362457,-9.0662 19.7362457,-16.2142 0,-9.9132 -15.4995157,-17.9277 -34.6177537,-17.9277 z"
         id="path4159"
         inkscape:connector-curvature="0" />
    </clipPath>
    <linearGradient
       inkscape:collect="always"
       xlink:href="#linearGradient4376-2"
       id="linearGradient4161"
       gradientUnits="userSpaceOnUse"
       x1="-65.96875"
       y1="1117.7372"
       x2="-3.59375"
       y2="1117.7372" />
    <radialGradient
       inkscape:collect="always"
       xlink:href="#linearGradient4221"
       id="radialGradient4497"
       gradientUnits="userSpaceOnUse"
       gradientTransform="matrix(1,0,0,0.66316779,-3.655202e-4,338.60956)"
       cx="30.967428"
       cy="985.8175"
       fx="30.967428"
       fy="985.8175"
       r="39.75544" />
  </defs>
  <sodipodi:namedview
     id="base"
     pagecolor="#ffffff"
     bordercolor="#666666"
     borderopacity="1.0"
     inkscape:pageopacity="0.0"
     inkscape:pageshadow="2"
     inkscape:zoom="5.6"
     inkscape:cx="48.302471"
     inkscape:cy="45.352169"
     inkscape:document-units="px"
     inkscape:current-layer="layer1"
     showgrid="false"
     inkscape:window-width="1150"
     inkscape:window-height="781"
     inkscape:window-x="573"
     inkscape:window-y="262"
     inkscape:window-maximized="0" />
  <metadata
     id="metadata7">
    <rdf:RDF>
      <cc:Work
         rdf:about="">
        <dc:format>image/svg+xml</dc:format>
        <dc:type
           rdf:resource="http://purl.org/dc/dcmitype/StillImage" />
        <dc:title></dc:title>
      </cc:Work>
    </rdf:RDF>
  </metadata>
  <g
     inkscape:label="Layer 1"
     inkscape:groupmode="layer"
     id="layer1"
     transform="translate(0,-956.36218)">
    <g
       id="g4331"
       transform="translate(-100,0)">
      <path
         transform="translate(100,0)"
         d="m 13.0625,957.125 c -6.1984862,0 -11.28125,5.13893 -11.28125,11.3125 l 0,32.6875 a 4.4741484,4.4741484 0 0 0 0.59375,2.25 4.4741484,4.4741484 0 0 0 -0.59375,2.25 l 0,32.6875 c 0,6.1738 5.1075232,11.2813 11.28125,11.2813 l 32.6875,0 A 4.4741484,4.4741484 0 0 0 48,1049 a 4.4741484,4.4741484 0 0 0 2.25,0.5938 l 32.6875,0 c 6.173815,0 11.28125,-5.1077 11.28125,-11.2813 l 0,-32.6875 a 4.4741484,4.4741484 0 0 0 -0.59375,-2.25 4.4741484,4.4741484 0 0 0 0.59375,-2.25 l 0,-32.6875 c 0,-6.17377 -5.082854,-11.3125 -11.28125,-11.3125 l -69.875,0 z"
         id="path4302"
         style="opacity:0.07999998;fill:#000000;fill-opacity:1;stroke:none"
         inkscape:original="M 13.0625 961.59375 C 9.28479 961.59375 6.25 964.66 6.25 968.4375 L 6.25 1001.125 L 89.75 1001.125 L 89.75 968.4375 C 89.75 964.66 86.71496 961.59375 82.9375 961.59375 L 13.0625 961.59375 z M 6.25 1005.625 L 6.25 1038.3125 C 6.25 1042.09 9.28503 1045.125 13.0625 1045.125 L 45.75 1045.125 L 45.75 1005.625 L 6.25 1005.625 z M 50.25 1005.625 L 50.25 1045.125 L 82.9375 1045.125 C 86.71521 1045.125 89.75 1042.09 89.75 1038.3125 L 89.75 1005.625 L 50.25 1005.625 z "
         inkscape:radius="4.473701"
         sodipodi:type="inkscape:offset" />
      <path
         transform="translate(100,0)"
         d="m 13.0625,958 c -5.7199905,0 -10.40625,4.73754 -10.40625,10.4375 l 0,32.6875 a 3.5897788,3.5897788 0 0 0 0.8125,2.25 3.5897788,3.5897788 0 0 0 -0.8125,2.25 l 0,32.6875 c 0,5.7001 4.7061723,10.4063 10.40625,10.4063 l 32.6875,0 a 3.5897788,3.5897788 0 0 0 2.25,-0.8126 3.5897788,3.5897788 0 0 0 2.25,0.8126 l 32.6875,0 c 5.700196,0 10.40625,-4.7063 10.40625,-10.4063 l 0,-32.6875 a 3.5897788,3.5897788 0 0 0 -0.8125,-2.25 3.5897788,3.5897788 0 0 0 0.8125,-2.25 l 0,-32.6875 C 93.34375,962.73738 88.657369,958 82.9375,958 l -69.875,0 z"
         id="path4293"
         style="opacity:0.1;fill:#000000;fill-opacity:1;stroke:none"
         inkscape:original="M 13.0625 961.59375 C 9.28479 961.59375 6.25 964.66 6.25 968.4375 L 6.25 1001.125 L 89.75 1001.125 L 89.75 968.4375 C 89.75 964.66 86.71496 961.59375 82.9375 961.59375 L 13.0625 961.59375 z M 6.25 1005.625 L 6.25 1038.3125 C 6.25 1042.09 9.28503 1045.125 13.0625 1045.125 L 45.75 1045.125 L 45.75 1005.625 L 6.25 1005.625 z M 50.25 1005.625 L 50.25 1045.125 L 82.9375 1045.125 C 86.71521 1045.125 89.75 1042.09 89.75 1038.3125 L 89.75 1005.625 L 50.25 1005.625 z "
         inkscape:radius="3.5894198"
         sodipodi:type="inkscape:offset" />
      <path
         transform="translate(100,0)"
         d="m 13.0625,958.8125 c -5.28989,0 -9.59375,4.35075 -9.59375,9.625 l 0,32.6875 a 2.7948547,2.7948547 0 0 0 1.125,2.25 2.7948547,2.7948547 0 0 0 -1.125,2.25 l 0,32.6875 c 0,5.2744 4.3194164,9.5937 9.59375,9.5937 l 32.6875,0 a 2.7948547,2.7948547 0 0 0 2.25,-1.125 2.7948547,2.7948547 0 0 0 2.25,1.125 l 32.6875,0 c 5.274478,0 9.59375,-4.3195 9.59375,-9.5937 l 0,-32.6875 a 2.7948547,2.7948547 0 0 0 -1.125,-2.25 2.7948547,2.7948547 0 0 0 1.125,-2.25 l 0,-32.6875 c 0,-5.27437 -4.30401,-9.625 -9.59375,-9.625 l -69.875,0 z m 34.875,45.0937 0.09375,0 a 2.7948547,2.7948547 0 0 0 -0.03125,0.063 2.7948547,2.7948547 0 0 0 -0.0625,-0.063 z"
         id="path4284"
         style="opacity:0.16000001;fill:#000000;fill-opacity:1;stroke:none"
         inkscape:original="M 13.0625 961.59375 C 9.28479 961.59375 6.25 964.66 6.25 968.4375 L 6.25 1001.125 L 89.75 1001.125 L 89.75 968.4375 C 89.75 964.66 86.71496 961.59375 82.9375 961.59375 L 13.0625 961.59375 z M 6.25 1005.625 L 6.25 1038.3125 C 6.25 1042.09 9.28503 1045.125 13.0625 1045.125 L 45.75 1045.125 L 45.75 1005.625 L 6.25 1005.625 z M 50.25 1005.625 L 50.25 1045.125 L 82.9375 1045.125 C 86.71521 1045.125 89.75 1042.09 89.75 1038.3125 L 89.75 1005.625 L 50.25 1005.625 z "
         inkscape:radius="2.7945752"
         sodipodi:type="inkscape:offset" />
      <path
         transform="translate(100,0)"
         d="m 13.0625,959.6875 c -4.8070087,0 -8.71875,3.95371 -8.71875,8.75 l 0,32.6875 a 1.9023795,1.9023795 0 0 0 1.90625,1.9062 l 83.5,0 a 1.9023795,1.9023795 0 0 0 1.90625,-1.9062 l 0,-32.6875 c 0,-4.79638 -3.911923,-8.75 -8.71875,-8.75 l -69.875,0 z m -7,44.0313 a 1.9023795,1.9023795 0 0 0 -1.71875,1.9062 l 0,32.6875 c 0,4.7964 3.9224068,8.7187 8.71875,8.7187 l 32.6875,0 a 1.9023795,1.9023795 0 0 0 1.90625,-1.9062 l 0,-39.5 A 1.9023795,1.9023795 0 0 0 45.75,1003.7188 l -39.5,0 a 1.9023795,1.9023795 0 0 0 -0.1875,0 z m 44,0 a 1.9023795,1.9023795 0 0 0 -1.71875,1.9062 l 0,39.5 a 1.9023795,1.9023795 0 0 0 1.90625,1.9062 l 32.6875,0 c 4.796518,0 8.71875,-3.9224 8.71875,-8.7187 l 0,-32.6875 A 1.9023795,1.9023795 0 0 0 89.75,1003.7188 l -39.5,0 a 1.9023795,1.9023795 0 0 0 -0.1875,0 z"
         id="path4320"
         style="opacity:0.2;fill:#000000;fill-opacity:1;stroke:none"
         inkscape:original="M 13.0625 961.59375 C 9.28479 961.59375 6.25 964.66 6.25 968.4375 L 6.25 1001.125 L 89.75 1001.125 L 89.75 968.4375 C 89.75 964.66 86.71496 961.59375 82.9375 961.59375 L 13.0625 961.59375 z M 6.25 1005.625 L 6.25 1038.3125 C 6.25 1042.09 9.28503 1045.125 13.0625 1045.125 L 45.75 1045.125 L 45.75 1005.625 L 6.25 1005.625 z M 50.25 1005.625 L 50.25 1045.125 L 82.9375 1045.125 C 86.71521 1045.125 89.75 1042.09 89.75 1038.3125 L 89.75 1005.625 L 50.25 1005.625 z "
         inkscape:radius="1.9021893"
         sodipodi:type="inkscape:offset" />
      <path
         d="m 13.0625,960.59375 c -4.3121704,0 -7.8125,3.53724 -7.8125,7.84375 l 0,32.6875 a 0.98780507,0.98780507 0 0 0 1,1 l 83.5,0 a 0.98780507,0.98780507 0 0 0 1,-1 l 0,-32.6875 c 0,-4.30655 -3.500544,-7.84375 -7.8125,-7.84375 l -69.875,0 z M 6.25,1004.625 a 0.98780507,0.98780507 0 0 0 -1,1 l 0,32.6875 c 0,4.3065 3.505983,7.8125 7.8125,7.8125 l 32.6875,0 a 0.98780507,0.98780507 0 0 0 1,-1 l 0,-39.5 a 0.98780507,0.98780507 0 0 0 -1,-1 l -39.5,0 z m 44,0 a 0.98780507,0.98780507 0 0 0 -1,1 l 0,39.5 a 0.98780507,0.98780507 0 0 0 1,1 l 32.6875,0 c 4.306723,0 7.8125,-3.506 7.8125,-7.8125 l 0,-32.6875 a 0.98780507,0.98780507 0 0 0 -1,-1 l -39.5,0 z"
         id="path4329"
         style="opacity:0.3;fill:#000000;fill-opacity:1;stroke:none"
         inkscape:original="M 13.0625 961.59375 C 9.28479 961.59375 6.25 964.66 6.25 968.4375 L 6.25 1001.125 L 89.75 1001.125 L 89.75 968.4375 C 89.75 964.66 86.71496 961.59375 82.9375 961.59375 L 13.0625 961.59375 z M 6.25 1005.625 L 6.25 1038.3125 C 6.25 1042.09 9.28503 1045.125 13.0625 1045.125 L 45.75 1045.125 L 45.75 1005.625 L 6.25 1005.625 z M 50.25 1005.625 L 50.25 1045.125 L 82.9375 1045.125 C 86.71521 1045.125 89.75 1042.09 89.75 1038.3125 L 89.75 1005.625 L 50.25 1005.625 z "
         inkscape:radius="0.9877063"
         sodipodi:type="inkscape:offset"
         transform="translate(100,0)" />
    </g>
    <path
       id="rect4007"
       style="fill:url(#radialGradient4394);fill-opacity:1;stroke:#404040;stroke-width:0.5;stroke-linecap:round;stroke-linejoin:round;stroke-miterlimit:4;stroke-opacity:1;stroke-dasharray:none"
       d="m 13.063527,1045.1172 c -3.7774653,0 -6.8185295,-3.0411 -6.8185295,-6.8186 l 0.00374,-32.6873 39.5020735,0 0,39.5021 z"
       inkscape:connector-curvature="0"
       sodipodi:nodetypes="cccccc" />
    <path
       id="rect4007-8"
       style="fill:url(#radialGradient4402);fill-opacity:1;stroke:#404040;stroke-width:0.5;stroke-linecap:round;stroke-linejoin:round;stroke-miterlimit:4;stroke-opacity:1;stroke-dasharray:none"
       d="m 50.248736,1045.1172 0,-39.502 39.502074,0 0.004,32.6834 c 0,3.7775 -3.041272,6.8186 -6.818986,6.8186 z"
       inkscape:connector-curvature="0"
       sodipodi:nodetypes="cccccc" />
    <path
       id="rect4007-8-6"
       style="fill:url(#radialGradient4410);fill-opacity:1;stroke:#404040;stroke-width:0.5;stroke-linecap:round;stroke-linejoin:round;stroke-miterlimit:4;stroke-opacity:1;stroke-dasharray:none"
       d="m 89.749873,1001.1125 -83.5001577,0 -0.00471,-32.68616 c 0,-3.7775 3.041272,-6.8186 6.8189857,-6.8186 l 69.872253,0 c 3.777466,0 6.81853,3.0411 6.81853,6.8186 z"
       inkscape:connector-curvature="0"
       sodipodi:nodetypes="ccccccc" />
    <g
       transform="translate(-2.5201967e-6,0)"
       style="font-size:40px;font-style:normal;font-weight:normal;line-height:125%;letter-spacing:0px;word-spacing:0px;fill:#000000;fill-opacity:1;stroke:none;font-family:Sans"
       id="text4124-60-5" />
    <g
       transform="translate(-2.5201967e-6,0)"
       style="font-size:14.05975628px;font-style:normal;font-weight:normal;line-height:125%;letter-spacing:0px;word-spacing:0px;fill:#000000;fill-opacity:1;stroke:none;font-family:Sans"
       id="text4128-1-4" />
    <g
       transform="translate(-2.5201967e-6,0)"
       style="font-size:40px;font-style:normal;font-weight:normal;line-height:125%;letter-spacing:0px;word-spacing:0px;fill:#000000;fill-opacity:1;stroke:none;font-family:Sans"
       id="text4124-6-4-2" />
    <g
       transform="translate(-2.5201967e-6,0)"
       style="font-size:40px;font-style:normal;font-weight:normal;line-height:125%;letter-spacing:0px;word-spacing:0px;fill:#000000;fill-opacity:1;stroke:none;font-family:Sans"
       id="text4124-60-7" />
    <g
       transform="translate(-2.5201967e-6,0)"
       style="font-size:14.05975628px;font-style:normal;font-weight:normal;line-height:125%;letter-spacing:0px;word-spacing:0px;fill:#000000;fill-opacity:1;stroke:none;font-family:Sans"
       id="text4128-1-2" />
    <g
       transform="translate(-2.5201967e-6,0)"
       style="font-size:40px;font-style:normal;font-weight:normal;line-height:125%;letter-spacing:0px;word-spacing:0px;fill:#000000;fill-opacity:1;stroke:none;font-family:Sans"
       id="text4124-6-4-1" />
    <path
       id="rect4007-8-6-6"
       style="opacity:0.5;fill:url(#radialGradient4402-4);fill-opacity:1;stroke:#404040;stroke-width:0.75;stroke-linejoin:round;stroke-miterlimit:4;stroke-opacity:1;stroke-dasharray:none"
       d="m 89.750159,1001.1125 -83.500159,0 -0.005,-32.68616 c 0,-3.7775 3.04127,-6.8186 6.818989,-6.8186 l 69.87225,0 c 3.77747,0 6.81853,3.0411 6.81853,6.8186 z"
       inkscape:connector-curvature="0"
       sodipodi:nodetypes="ccccccc" />
    <path
       id="rect4007-0"
       style="opacity:0.5;fill:url(#radialGradient4442);fill-opacity:1;stroke:#404040;stroke-width:0.75;stroke-linecap:round;stroke-linejoin:round;stroke-miterlimit:4;stroke-opacity:1;stroke-dasharray:none"
       d="m 13.063527,1045.1172 c -3.7774695,0 -6.8185295,-3.0411 -6.8185295,-6.8186 l 0.004,-32.6873 39.5020695,0 0,39.5021 z"
       inkscape:connector-curvature="0"
       sodipodi:nodetypes="cccccc" />
    <path
       id="rect4007-8-5"
       style="opacity:0.5;fill:url(#radialGradient4476);fill-opacity:1;stroke:#404040;stroke-width:0.75;stroke-linecap:round;stroke-linejoin:round;stroke-miterlimit:4;stroke-opacity:1;stroke-dasharray:none"
       d="m 50.248737,1045.1172 0,-39.502 39.50207,0 0.004,32.6834 c 0,3.7775 -3.04127,6.8186 -6.81898,6.8186 z"
       inkscape:connector-curvature="0"
       sodipodi:nodetypes="cccccc" />
    <g
       id="g4338"
       transform="translate(111.75,0)">
      <path
         transform="translate(-111.75,0)"
         d="m 47.59375,975.84375 c -11.362181,0 -21.680078,2.35582 -29.4375,6.375 -7.757422,4.01918 -13.375,10.03719 -13.375,17.4375 0,7.17585 5.316201,13.06445 12.6875,17.06255 7.059544,3.8289 16.379494,6.1853 26.71875,6.625 7.628345,7.6912 19.869644,11.8294 38.96875,11.3124 a 3.3644164,3.3644164 0 0 0 1.25,-6.4687 c -6.070348,-2.6492 -11.256394,-5.1611 -14.46875,-8.375 4.978608,-1.6755 9.512972,-3.7146 12.9375,-6.4687 4.484033,-3.6063 7.53125,-8.3471 7.53125,-13.68755 0,-7.40031 -5.617578,-13.41832 -13.375,-17.4375 -7.757422,-4.01918 -18.075319,-6.375 -29.4375,-6.375 z"
         id="path4333"
         style="opacity:0.07999998;fill:#000000;fill-opacity:1;stroke:none"
         inkscape:original="M 47.59375 979.21875 C 25.810645 979.21875 8.15625 988.36099 8.15625 999.65625 C 8.15625 1010.6079 24.759322 1019.529 45.625 1020.0625 C 52.335068 1027.5231 63.62605 1031.8073 83.0625 1031.2812 C 75.091203 1027.8024 67.693952 1024.4365 64.53125 1018.125 C 77.820064 1014.8355 87.03125 1007.8007 87.03125 999.65625 C 87.03125 988.36099 69.376855 979.21875 47.59375 979.21875 z "
         inkscape:radius="3.36408"
         sodipodi:type="inkscape:offset" />
      <path
         transform="translate(-111.75,0)"
         d="m 47.59375,976.625 c -11.255244,0 -21.477418,2.33517 -29.09375,6.28125 -7.616332,3.94608 -12.9375,9.74794 -12.9375,16.75 0,6.78955 5.017834,12.48365 12.25,16.40625 6.980855,3.7863 16.319154,6.0913 26.65625,6.5 7.420901,7.6685 19.457523,11.8322 38.65625,11.3125 a 2.5999475,2.5999475 0 0 0 0.96875,-4.9688 c -6.567878,-2.8663 -12.120784,-5.6758 -15.375,-9.4687 5.327431,-1.6859 10.132271,-3.8282 13.6875,-6.6875 4.365847,-3.5112 7.21875,-8.0415 7.21875,-13.09375 0,-7.00206 -5.321168,-12.80392 -12.9375,-16.75 C 69.071168,978.96017 58.848994,976.625 47.59375,976.625 z"
         id="path4317"
         style="opacity:0.1;fill:#000000;fill-opacity:1;stroke:none"
         inkscape:original="M 47.59375 979.21875 C 25.810645 979.21875 8.15625 988.36099 8.15625 999.65625 C 8.15625 1010.6079 24.759322 1019.529 45.625 1020.0625 C 52.335068 1027.5231 63.62605 1031.8073 83.0625 1031.2812 C 75.091203 1027.8024 67.693952 1024.4365 64.53125 1018.125 C 77.820064 1014.8355 87.03125 1007.8007 87.03125 999.65625 C 87.03125 988.36099 69.376855 979.21875 47.59375 979.21875 z "
         inkscape:radius="2.5996876"
         sodipodi:type="inkscape:offset" />
      <path
         transform="translate(-111.75025,0)"
         d="m 47.59375,977.40625 c -11.146819,0 -21.245472,2.31554 -28.71875,6.1875 -7.473278,3.87196 -12.53125,9.46423 -12.53125,16.0625 0,6.39795 4.752653,11.87265 11.84375,15.71875 6.920817,3.7537 16.283392,6.0718 26.65625,6.4375 7.213086,7.6017 19.029483,11.8024 38.28125,11.2813 a 1.8248405,1.8248405 0 0 0 0.65625,-3.5 c -7.02703,-3.0668 -13.051268,-6.0798 -16.3125,-10.5313 5.701582,-1.6874 10.75268,-3.974 14.4375,-6.9375 4.246016,-3.4148 6.9375,-7.7086 6.9375,-12.46875 0,-6.59827 -5.057972,-12.19054 -12.53125,-16.0625 -7.473278,-3.87196 -17.571931,-6.1875 -28.71875,-6.1875 z"
         id="path4301"
         style="opacity:0.16000001;fill:#000000;fill-opacity:1;stroke:none"
         inkscape:original="M 47.59375 979.21875 C 25.810645 979.21875 8.15625 988.36099 8.15625 999.65625 C 8.15625 1010.6079 24.759322 1019.529 45.625 1020.0625 C 52.335068 1027.5231 63.62605 1031.8073 83.0625 1031.2812 C 75.091203 1027.8024 67.693952 1024.4365 64.53125 1018.125 C 77.820064 1014.8355 87.03125 1007.8007 87.03125 999.65625 C 87.03125 988.36099 69.376855 979.21875 47.59375 979.21875 z "
         inkscape:radius="1.824658"
         sodipodi:type="inkscape:offset" />
      <path
         transform="translate(-111.75025,0)"
         d="m 47.59375,978.125 c -11.045937,0 -21.066072,2.29075 -28.40625,6.09375 -7.340178,3.803 -12.125,9.21492 -12.125,15.4375 0,6.03345 4.508906,11.31885 11.46875,15.09375 6.854261,3.7176 16.204052,6.0455 26.59375,6.375 7.014189,7.5595 18.632564,11.7734 37.96875,11.25 A 1.1036638,1.1036638 0 0 0 83.5,1030.2812 c -7.445568,-3.2493 -13.990781,-6.4608 -17.21875,-11.625 6.067092,-1.6789 11.386166,-4.0365 15.1875,-7.0937 4.134523,-3.3252 6.65625,-7.418 6.65625,-11.90625 0,-6.22258 -4.784822,-11.6345 -12.125,-15.4375 -7.340178,-3.803 -17.360313,-6.09375 -28.40625,-6.09375 z"
         id="path4292"
         style="opacity:0.23999999;fill:#000000;fill-opacity:1;stroke:none"
         inkscape:original="M 47.59375 979.21875 C 25.810645 979.21875 8.15625 988.36099 8.15625 999.65625 C 8.15625 1010.6079 24.759322 1019.529 45.625 1020.0625 C 52.335068 1027.5231 63.62605 1031.8073 83.0625 1031.2812 C 75.091203 1027.8024 67.693952 1024.4365 64.53125 1018.125 C 77.820064 1014.8355 87.03125 1007.8007 87.03125 999.65625 C 87.03125 988.36099 69.376855 979.21875 47.59375 979.21875 z "
         inkscape:radius="1.1035534"
         sodipodi:type="inkscape:offset" />
    </g>
    <path
       inkscape:connector-curvature="0"
       id="path4441-3"
       d="m 47.584437,979.2245 c -21.78311,0 -39.4430795,9.1315 -39.4430795,20.42676 0,10.95164 16.6251295,19.89314 37.4908095,20.42664 6.71006,7.4606 17.98205,11.7335 37.4185,11.2074 -7.9713,-3.4788 -15.34771,-6.8482 -18.51041,-13.1597 13.28881,-3.2895 22.48725,-10.3299 22.48725,-18.47434 0,-11.29526 -17.65997,-20.42676 -39.44307,-20.42676 z"
       style="fill:url(#radialGradient4374);fill-opacity:1;stroke:#404040;stroke-width:0.5;stroke-linecap:butt;stroke-linejoin:miter;stroke-miterlimit:4;stroke-opacity:1;stroke-dasharray:none" />
    <g
       style="font-size:14.05975628px;font-style:normal;font-weight:normal;line-height:125%;letter-spacing:0px;word-spacing:0px;fill:url(#linearGradient4163);fill-opacity:1;stroke:#5c5c5c;stroke-width:0.08776637;stroke-miterlimit:4;stroke-opacity:1;stroke-dasharray:none;font-family:Sans"
       id="text4128-4-8-3"
       transform="matrix(1.1393886,0,0,1.1393886,85.628537,-273.6254)"
       clip-path="url(#clipPath4157)">
      <path
         d="m -51.75,146.15625 c -4.414075,1e-4 -7.867196,1.3542 -10.40625,4.0625 -2.539066,2.6954 -3.812503,6.40625 -3.8125,11.09375 -3e-6,4.6744 1.273434,8.3541 3.8125,11.0625 2.539054,2.6953 5.992175,4.03125 10.40625,4.03125 1.718732,0 3.369772,-0.2187 4.90625,-0.6875 1.549457,-0.4687 2.994767,-1.1875 4.375,-2.125 l 0,-4.09375 c -1.32815,1.237 -2.739606,2.138 -4.25,2.75 -1.497416,0.612 -3.08856,0.9375 -4.78125,0.9375 -2.86993,0 -5.163337,-0.77554 -6.875,-2.28125 0.425981,0.1712 0.897382,0.28125 1.4375,0.28125 1.098413,0 1.96673,-0.3486 2.59375,-1.0625 0.627006,-0.7186 0.937492,-1.71015 0.9375,-2.96875 -8e-6,-1.2631 -0.310494,-2.25475 -0.9375,-2.96875 -0.62702,-0.714 -1.495337,-1.09375 -2.59375,-1.09375 -1.102999,0 -1.966738,0.37975 -2.59375,1.09375 -0.622438,0.714 -0.9375,1.70565 -0.9375,2.96875 0,0.47197 0.06872,0.88521 0.15625,1.28125 -0.996096,-1.87012 -1.500005,-4.24417 -1.5,-7.125 -7e-6,-3.8542 0.885409,-6.81245 2.65625,-8.84375 1.770822,-2.0442 4.322903,-3.0625 7.65625,-3.0625 1.69269,0 3.283834,0.29425 4.78125,0.90625 1.510394,0.612 2.92185,1.54435 4.25,2.78125 l 0,-4.15625 c -1.354191,-0.9245 -2.794294,-1.6068 -4.34375,-2.0625 -1.536478,-0.4688 -3.192727,-0.71865 -4.9375,-0.71875 z m 24.25,0.1875 c -3.190114,1e-4 -5.708341,0.73435 -7.53125,2.21875 -1.809899,1.4844 -2.687502,3.51565 -2.6875,6.09375 -2e-6,2.2266 0.653643,3.96875 1.96875,5.21875 1.315099,1.25 3.432284,2.1641 6.375,2.75 l 2.40625,0.46875 c 2.005193,0.4037 3.440088,1.0053 4.3125,1.8125 0.885398,0.8073 1.343731,1.9427 1.34375,3.375 -1.9e-5,1.6406 -0.61981,2.89585 -1.84375,3.78125 -1.223975,0.8854 -2.96616,1.34375 -5.21875,1.34375 -1.484386,0 -2.994801,-0.2318 -4.53125,-0.6875 -1.131475,-0.33558 -2.270725,-0.79932 -3.4375,-1.375 l 0,-8.0625 -1.28125,0 0,11.46875 c 1.666662,0.6119 3.294265,1.0625 4.84375,1.375 1.562491,0.3125 3.026031,0.46875 4.40625,0.46875 3.658839,0 6.424461,-0.7291 8.3125,-2.1875 1.90102,-1.4583 2.843727,-3.6119 2.84375,-6.4375 -2.3e-5,-2.3697 -0.687522,-4.25005 -2.09375,-5.65625 -0.371613,-0.37856 -0.799407,-0.71383 -1.28125,-1.03125 0.283313,-0.14655 0.544166,-0.30436 0.75,-0.53125 0.581239,-0.6362 0.874992,-1.6285 0.875,-2.9375 l 0,-10 c -1.484394,-0.4948 -2.924498,-0.84635 -4.34375,-1.09375 -1.419287,-0.2474 -2.820326,-0.3749 -4.1875,-0.375 z m 11.09375,1.75 0,10.6875 1.28125,0 0,-4.34375 c -3e-6,-0.7506 0.168897,-1.34645 0.5625,-1.78125 0.393596,-0.4348 0.943061,-0.65625 1.625,-0.65625 0.567511,0 0.997487,0.16965 1.28125,0.53125 0.283752,0.3615 0.437493,0.92855 0.4375,1.65625 l 0,4.59375 1.25,0 0,-4.65625 c -7.7e-6,-1.0618 -0.234409,-1.86165 -0.6875,-2.40625 -0.453104,-0.5492 -1.116695,-0.8125 -2,-0.8125 -0.535484,0 -0.994347,0.11495 -1.40625,0.34375 -0.407333,0.2289 -0.760438,0.56895 -1.0625,1.03125 l 0,-4.1875 z m 8.9375,0.8125 0,2.1875 -0.90625,0 0,0.96875 0.90625,0 0,4.1875 c -1.3e-6,0.9611 0.1917822,1.6339 0.5625,2 0.370714,0.3616 1.0564007,0.53125 2.03125,0.53125 l 1.28125,0 0,-1.0625 -1.28125,0 c -0.5263289,0 -0.8885867,-0.0715 -1.0625,-0.25 -0.1693422,-0.1785 -0.2500026,-0.59175 -0.25,-1.21875 l 0,-4.1875 2.59375,0 0,-0.96875 -2.59375,0 0,-2.1875 z m -19.59375,0.625 c 1.236965,1e-4 2.546859,0.17975 3.875,0.53125 0.948648,0.25114 1.933721,0.62537 2.96875,1.0625 l 0,1.125 c -0.26088,-0.4531 -0.592675,-0.7757 -1,-1 -0.407335,-0.2243 -0.901238,-0.34375 -1.46875,-0.34375 -0.942812,0 -1.704583,0.344 -2.28125,1.0625 -0.576671,0.7186 -0.875001,1.685 -0.875,2.875 -1e-6,1.1853 0.298329,2.12515 0.875,2.84375 0.576667,0.7185 1.338438,1.09375 2.28125,1.09375 0.567512,0 1.061415,-0.11945 1.46875,-0.34375 0.407325,-0.2243 0.73912,-0.5469 1,-1 l 0,0.625 c -6e-6,0.8741 -0.213099,1.5073 -0.625,1.9375 -0.257445,0.27175 -0.61112,0.46059 -1.03125,0.5625 -1.106474,-0.51837 -2.417768,-0.92959 -3.9375,-1.21875 l -2.125,-0.40625 0,-7.84375 -1.25,0 0,7.5625 c -1.61069,-0.37084 -2.786171,-0.83217 -3.4375,-1.375 -0.768236,-0.664 -1.156257,-1.6484 -1.15625,-2.9375 -7e-6,-1.5364 0.591139,-2.7291 1.75,-3.5625 1.171866,-0.8333 2.820301,-1.2499 4.96875,-1.25 z m 4.6875,2.4375 c 0.68193,0 1.218451,0.2465 1.59375,0.75 0.379863,0.5034 0.562494,1.2096 0.5625,2.125 -6e-6,0.9107 -0.182637,1.6216 -0.5625,2.125 -0.375299,0.5034 -0.91182,0.75 -1.59375,0.75 -0.677362,0 -1.213883,-0.2466 -1.59375,-0.75 -0.375295,-0.5034 -0.562502,-1.2143 -0.5625,-2.125 -2e-6,-0.9154 0.187205,-1.6216 0.5625,-2.125 0.379867,-0.5035 0.916388,-0.75 1.59375,-0.75 z m -25.25,11.125 c -0.553791,0 -1.034751,0.11955 -1.4375,0.34375 -0.402757,0.2243 -0.742918,0.5911 -1.03125,1.0625 l 0,-1.21875 -1.28125,0 0,7.6875 1.28125,0 0,-4.34375 c -2e-6,-0.746 0.182627,-1.3152 0.5625,-1.75 0.379866,-0.4393 0.885925,-0.65625 1.53125,-0.65625 0.544627,0 0.95787,0.17435 1.21875,0.53125 0.260868,0.3525 0.406243,0.8836 0.40625,1.625 l 0,4.59336 1.250325,0 0,-4.34336 c -8e-6,-0.7506 0.213547,-1.34645 0.593425,-1.78125 0.379861,-0.4348 0.876766,-0.625 1.53125,-0.625 0.535468,0 0.926615,0.17435 1.1875,0.53125 0.260863,0.357 0.406239,0.8882 0.40625,1.625 l 0,4.59375 1.28125,0 0,-4.625 c -1.3e-5,-1.0343 -0.221472,-1.84795 -0.65625,-2.40625 -0.434802,-0.563 -1.07408,-0.84375 -1.875,-0.84375 -0.594986,0 -1.091891,0.13625 -1.53125,0.40625 -0.439375,0.27 -0.840462,0.71375 -1.15625,1.28125 -0.187653,-0.54 -0.450157,-0.9662 -0.84375,-1.25 -0.38903,-0.2838 -0.879143,-0.4375 -1.4375,-0.4375 z m 17.21875,0 c -1.19911,0 -2.121414,0.37515 -2.8125,1.09375 -0.686512,0.7185 -1.031251,1.71475 -1.03125,2.96875 -10e-7,1.2358 0.318064,2.2098 1,2.9375 0.681933,0.7277 1.62333,1.09375 2.78125,1.09375 0.425632,0 0.812202,-0.043 1.1875,-0.125 0.379864,-0.0824 0.741335,-0.2102 1.09375,-0.375 l 0,-1.15625 c -0.356992,0.1968 -0.700943,0.3368 -1.0625,0.4375 -0.356991,0.0962 -0.727616,0.15625 -1.09375,0.15625 -0.819241,0 -1.453156,-0.26405 -1.90625,-0.78125 -0.4531,-0.5217 -0.687503,-1.2492 -0.6875,-2.1875 -3e-6,-0.9382 0.2344,-1.6703 0.6875,-2.1875 0.453094,-0.5217 1.087009,-0.78125 1.90625,-0.78125 0.366134,0 0.736759,0.0557 1.09375,0.15625 0.361557,0.0962 0.705508,0.2407 1.0625,0.4375 l 0,-1.1875 c -0.347839,-0.1602 -0.69179,-0.297 -1.0625,-0.375 -0.370721,-0.0825 -0.767232,-0.125 -1.15625,-0.125 z m -26.53125,1.09375 c 0.672776,0 1.200145,0.24585 1.59375,0.78125 0.393594,0.5309 0.593744,1.2768 0.59375,2.1875 -0.0397,1.73145 -0.796267,2.57575 -2.1875,2.96875 -0.681939,0 -1.200153,-0.2862 -1.59375,-0.8125 -0.389025,-0.5309 -0.593752,-1.23625 -0.59375,-2.15625 -2e-6,-0.9199 0.200147,-1.6612 0.59375,-2.1875 0.393596,-0.5309 0.916388,-0.78125 1.59375,-0.78125 z"
         transform="translate(0,956.36218)"
         id="path3279"
         inkscape:connector-curvature="0"
         sodipodi:nodetypes="ccscsccccscsccsscscscscccccccsscccccsscccccscccccccsccccssscsccscscccccccccscsccscsccccccccccsscscsscsccccccccsccscccscscssccccccscscsccccsccccccscccsscsssccccscscsccccssccccscs"
         style="fill:url(#linearGradient4161);fill-opacity:1;stroke:#5c5c5c;stroke-width:0.08776637;stroke-miterlimit:4;stroke-opacity:1;stroke-dasharray:none" />
    </g>
    <path
       inkscape:connector-curvature="0"
       id="path4441-3-3"
       d="m 47.584067,979.2245 c -21.7831,0 -39.4430695,9.1315 -39.4430695,20.42676 0,10.95164 16.6251195,19.89314 37.4907995,20.42664 6.71007,7.4606 17.98205,11.7335 37.4185,11.2074 -7.97129,-3.4788 -15.3477,-6.8482 -18.5104,-13.1597 13.28881,-3.2895 22.48725,-10.3299 22.48725,-18.47434 0,-11.29526 -17.65997,-20.42676 -39.44308,-20.42676 z"
       style="opacity:0.5;fill:url(#radialGradient4497);fill-opacity:1;stroke:none" />
    <path
       inkscape:connector-curvature="0"
       id="path4441-3-1"
       d="m 47.584437,979.2245 c -21.78311,0 -39.4430795,9.1315 -39.4430795,20.42676 0,10.95164 16.6251295,19.89314 37.4908095,20.42664 6.71006,7.4606 17.98205,11.7335 37.4185,11.2074 -7.9713,-3.4788 -15.34771,-6.8482 -18.51041,-13.1597 13.28881,-3.2895 22.48725,-10.3299 22.48725,-18.47434 0,-11.29526 -17.65997,-20.42676 -39.44307,-20.42676 z"
       style="fill:none;stroke:#404040;stroke-width:0.5;stroke-linecap:round;stroke-linejoin:round;stroke-miterlimit:4;stroke-opacity:1;stroke-dasharray:none" />
    <path
       sodipodi:type="arc"
       style="fill:#ffffff;fill-opacity:0.50196078;stroke:#404040;stroke-width:0.54000002;stroke-miterlimit:4;stroke-opacity:1;stroke-dasharray:none"
       id="path4522"
       sodipodi:cx="114.19775"
       sodipodi:cy="41.022449"
       sodipodi:rx="8.485281"
       sodipodi:ry="8.485281"
       d="m 122.68303,41.022449 a 8.485281,8.485281 0 1 1 -16.97056,0 8.485281,8.485281 0 1 1 16.97056,0 z"
       transform="matrix(1.4277035,0,0,1.4277035,-138.54058,930.29429)" />
    <path
       sodipodi:type="arc"
       style="fill:#ffffff;fill-opacity:0.50196078;stroke:#404040;stroke-width:0.54000002;stroke-miterlimit:4;stroke-opacity:1;stroke-dasharray:none"
       id="path4522-6"
       sodipodi:cx="114.19775"
       sodipodi:cy="41.022449"
       sodipodi:rx="8.485281"
       sodipodi:ry="8.485281"
       d="m 122.68303,41.022449 a 8.485281,8.485281 0 1 1 -16.97056,0 8.485281,8.485281 0 1 1 16.97056,0 z"
       transform="matrix(1.4276974,0,0,1.4276974,-92.539725,930.29465)" />
  </g>
</svg>
