<?xml version="1.0" encoding="UTF-8" standalone="no"?>
<!-- Created with Inkscape (http://www.inkscape.org/) -->

<svg
   xmlns:dc="http://purl.org/dc/elements/1.1/"
   xmlns:cc="http://creativecommons.org/ns#"
   xmlns:rdf="http://www.w3.org/1999/02/22-rdf-syntax-ns#"
   xmlns:svg="http://www.w3.org/2000/svg"
   xmlns="http://www.w3.org/2000/svg"
   xmlns:xlink="http://www.w3.org/1999/xlink"
   xmlns:sodipodi="http://sodipodi.sourceforge.net/DTD/sodipodi-0.dtd"
   xmlns:inkscape="http://www.inkscape.org/namespaces/inkscape"
   width="96"
   height="64"
   id="svg2"
   version="1.1"
   inkscape:version="0.48.4 r9939"
   sodipodi:docname="osxinstaller.svg"
   inkscape:export-filename="/home/pascal/Data/Pascal/Programme/Development/comicsight/drawing128.png"
   inkscape:export-xdpi="120"
   inkscape:export-ydpi="120">
  <defs
     id="defs4">
    <linearGradient
       id="linearGradient4368">
      <stop
         style="stop-color:#ffffff;stop-opacity:1;"
         offset="0"
         id="stop4370" />
      <stop
         style="stop-color:#bebebe;stop-opacity:1;"
         offset="1"
         id="stop4372" />
    </linearGradient>
    <linearGradient
       id="linearGradient4376-2-9">
      <stop
         style="stop-color:#e0e0a0;stop-opacity:1;"
         offset="0"
         id="stop4378-6-5" />
      <stop
         style="stop-color:#e0e0a0;stop-opacity:0;"
         offset="1"
         id="stop4380-0-8" />
    </linearGradient>
    <clipPath
       clipPathUnits="userSpaceOnUse"
       id="clipPath4083">
      <path
         style="fill:#cccccc;stroke:#000000;stroke-width:0;stroke-linecap:round;stroke-linejoin:round;stroke-miterlimit:4;stroke-opacity:1"
         d="m 34.673818,989.42018 13.168476,0 0,-6.80798 13.483888,12.61651 -13.483888,12.61649 0,-6.808 -13.168476,0 z"
         id="path4085"
         inkscape:connector-curvature="0"
         sodipodi:nodetypes="cccccccc" />
    </clipPath>
    <linearGradient
       inkscape:collect="always"
       xlink:href="#linearGradient4376-2-9"
       id="linearGradient4089"
       gradientUnits="userSpaceOnUse"
       gradientTransform="matrix(0.3893886,0,0,0.3893886,59.746715,932.45859)"
       x1="-65.96875"
       y1="1117.7372"
       x2="-3.59375"
       y2="1117.7372" />
    <radialGradient
       inkscape:collect="always"
       xlink:href="#linearGradient4368"
       id="radialGradient4107"
       cx="48"
       cy="995.2287"
       fx="48"
       fy="995.2287"
       r="13.326182"
       gradientTransform="matrix(1,0,0,0.94674529,0,83.406245)"
       gradientUnits="userSpaceOnUse" />
    <radialGradient
       r="20.253036"
       fy="1014.2455"
       fx="59.260994"
       cy="1014.2455"
       cx="59.260994"
       gradientTransform="matrix(1.2527441,0,0,1.4455842,-16.788206,-453.1853)"
       gradientUnits="userSpaceOnUse"
       id="radialGradient4476-1"
       xlink:href="#linearGradient4221-1"
       inkscape:collect="always" />
    <linearGradient
       id="linearGradient4221-1">
      <stop
         style="stop-color:#ffffff;stop-opacity:0.91925466;"
         offset="0"
         id="stop4223-5" />
      <stop
         style="stop-color:#ffffff;stop-opacity:0;"
         offset="1"
         id="stop4225-2" />
    </linearGradient>
    <radialGradient
       r="20.252907"
       fy="1012.9687"
       fx="14.683672"
       cy="1012.9687"
       cx="14.683672"
       gradientTransform="matrix(1.3230681,0,0,1.4458191,-8.2788165,-452.9938)"
       gradientUnits="userSpaceOnUse"
       id="radialGradient4442-1"
       xlink:href="#linearGradient4221-1"
       inkscape:collect="always" />
    <radialGradient
       r="42.254887"
       fy="955.91083"
       fx="12.467776"
       cy="955.91083"
       cx="12.467776"
       gradientTransform="matrix(1,0,0,0.64697221,2.8e-4,350.71482)"
       gradientUnits="userSpaceOnUse"
       id="radialGradient4402-4-6"
       xlink:href="#linearGradient4221-1"
       inkscape:collect="always" />
    <radialGradient
       inkscape:collect="always"
       xlink:href="#linearGradient4404-5"
       id="radialGradient4410-2"
       cx="47.999893"
       cy="981.36011"
       fx="47.999893"
       fy="981.36011"
       r="42.254887"
       gradientTransform="matrix(1,0,0,0.47929086,-2.5e-6,511.00324)"
       gradientUnits="userSpaceOnUse" />
    <linearGradient
       id="linearGradient4404-5">
      <stop
         style="stop-color:#8080f8;stop-opacity:1;"
         offset="0"
         id="stop4406-1" />
      <stop
         style="stop-color:#44448f;stop-opacity:1;"
         offset="1"
         id="stop4408-1" />
    </linearGradient>
    <radialGradient
       inkscape:collect="always"
       xlink:href="#linearGradient4396-4"
       id="radialGradient4402-6"
       cx="69.112579"
       cy="1018.3737"
       fx="69.112579"
       fy="1018.3737"
       r="20.253036"
       gradientTransform="matrix(1.3578701,-0.56645678,0.42865657,1.0275452,-461.61413,10.312465)"
       gradientUnits="userSpaceOnUse" />
    <linearGradient
       id="linearGradient4396-4">
      <stop
         style="stop-color:#f88080;stop-opacity:1;"
         offset="0"
         id="stop4398-5" />
      <stop
         style="stop-color:#8f4444;stop-opacity:1;"
         offset="1"
         id="stop4400-3" />
    </linearGradient>
    <linearGradient
       id="linearGradient4388-7">
      <stop
         style="stop-color:#80f880;stop-opacity:1;"
         offset="0"
         id="stop4390-8" />
      <stop
         style="stop-color:#448f44;stop-opacity:1;"
         offset="1"
         id="stop4392-3" />
    </linearGradient>
    <radialGradient
       r="20.252907"
       fy="1019.7424"
       fx="26.975901"
       cy="1019.7424"
       cx="26.975901"
       gradientTransform="matrix(1.3404099,0.36659529,-0.29604481,1.0824509,293.14282,-94.533203)"
       gradientUnits="userSpaceOnUse"
       id="radialGradient3094"
       xlink:href="#linearGradient4388-7"
       inkscape:collect="always" />
  </defs>
  <sodipodi:namedview
     id="base"
     pagecolor="#ffffff"
     bordercolor="#666666"
     borderopacity="1.0"
     inkscape:pageopacity="0.0"
     inkscape:pageshadow="2"
     inkscape:zoom="8"
     inkscape:cx="61.176107"
     inkscape:cy="29.509808"
     inkscape:document-units="px"
     inkscape:current-layer="layer1"
     showgrid="false"
     inkscape:window-width="1566"
     inkscape:window-height="880"
     inkscape:window-x="351"
     inkscape:window-y="173"
     inkscape:window-maximized="0" />
  <metadata
     id="metadata7">
    <rdf:RDF>
      <cc:Work
         rdf:about="">
        <dc:format>image/svg+xml</dc:format>
        <dc:type
           rdf:resource="http://purl.org/dc/dcmitype/StillImage" />
        <dc:title />
      </cc:Work>
    </rdf:RDF>
  </metadata>
  <g
     inkscape:label="Layer 1"
     inkscape:groupmode="layer"
     id="layer1"
     transform="translate(0,-988.3622)">
    <rect
       style="fill:#ffffff;fill-opacity:1;stroke:none"
       id="rect3081-9"
       width="96"
       height="64"
       x="0"
       y="988.36218" />
    <g
       id="g4331"
       transform="translate(-100,0.17681168)">
      <path
         transform="translate(100,0)"
         d="M 13.0625,959.34375 C 8.0611403,959.34375 4,963.44884 4,968.4375 l 0,32.6875 a 2.2615846,2.2615846 0 0 0 2.03125,2.25 A 2.2615846,2.2615846 0 0 0 4,1005.625 l 0,32.6875 c 0,4.9888 4.0737743,9.0625 9.0625,9.0625 l 32.6875,0 a 2.2615846,2.2615846 0 0 0 2.25,-2.0312 2.2615846,2.2615846 0 0 0 2.25,2.0312 l 32.6875,0 c 4.988889,0 9.0625,-4.0738 9.0625,-9.0625 l 0,-32.6875 a 2.2615846,2.2615846 0 0 0 -2.03125,-2.25 2.2615846,2.2615846 0 0 0 2.03125,-2.25 l 0,-32.6875 c 0,-4.98876 -4.061309,-9.09375 -9.0625,-9.09375 l -69.875,0 z m 32.84375,44.03125 4.125,0 A 2.2615846,2.2615846 0 0 0 48,1005.4062 2.2615846,2.2615846 0 0 0 45.90625,1003.375 z"
         id="path4302"
         style="opacity:0.07999998;fill:#000000;fill-opacity:1;stroke:none"
         inkscape:original="M 13.0625 961.59375 C 9.28479 961.59375 6.25 964.66 6.25 968.4375 L 6.25 1001.125 L 89.75 1001.125 L 89.75 968.4375 C 89.75 964.66 86.71496 961.59375 82.9375 961.59375 L 13.0625 961.59375 z M 6.25 1005.625 L 6.25 1038.3125 C 6.25 1042.09 9.28503 1045.125 13.0625 1045.125 L 45.75 1045.125 L 45.75 1005.625 L 6.25 1005.625 z M 50.25 1005.625 L 50.25 1045.125 L 82.9375 1045.125 C 86.71521 1045.125 89.75 1042.09 89.75 1038.3125 L 89.75 1005.625 L 50.25 1005.625 z "
         inkscape:radius="2.2613585"
         sodipodi:type="inkscape:offset" />
      <path
         transform="translate(100,0)"
         d="m 13.0625,959.75 c -4.7793475,0 -8.65625,3.91858 -8.65625,8.6875 l 0,32.6875 a 1.8512554,1.8512554 0 0 0 1.84375,1.8438 l 83.5,0 a 1.8512554,1.8512554 0 0 0 1.84375,-1.8438 l 0,-32.6875 c 0,-4.769 -3.877086,-8.6875 -8.65625,-8.6875 l -69.875,0 z m -7,44.0312 a 1.8512554,1.8512554 0 0 0 -1.65625,1.8438 l 0,32.6875 c 0,4.769 3.8872878,8.6563 8.65625,8.6563 l 32.6875,0 a 1.8512554,1.8512554 0 0 0 1.84375,-1.8438 l 0,-39.5 A 1.8512554,1.8512554 0 0 0 45.75,1003.7812 l -39.5,0 a 1.8512554,1.8512554 0 0 0 -0.1875,0 z m 44,0 a 1.8512554,1.8512554 0 0 0 -1.65625,1.8438 l 0,39.5 a 1.8512554,1.8512554 0 0 0 1.84375,1.8438 l 32.6875,0 c 4.769139,0 8.65625,-3.8874 8.65625,-8.6563 l 0,-32.6875 A 1.8512554,1.8512554 0 0 0 89.75,1003.7812 l -39.5,0 a 1.8512554,1.8512554 0 0 0 -0.1875,0 z"
         id="path4293"
         style="opacity:0.1;fill:#000000;fill-opacity:1;stroke:none"
         inkscape:original="M 13.0625 961.59375 C 9.28479 961.59375 6.25 964.66 6.25 968.4375 L 6.25 1001.125 L 89.75 1001.125 L 89.75 968.4375 C 89.75 964.66 86.71496 961.59375 82.9375 961.59375 L 13.0625 961.59375 z M 6.25 1005.625 L 6.25 1038.3125 C 6.25 1042.09 9.28503 1045.125 13.0625 1045.125 L 45.75 1045.125 L 45.75 1005.625 L 6.25 1005.625 z M 50.25 1005.625 L 50.25 1045.125 L 82.9375 1045.125 C 86.71521 1045.125 89.75 1042.09 89.75 1038.3125 L 89.75 1005.625 L 50.25 1005.625 z "
         inkscape:radius="1.8510703"
         sodipodi:type="inkscape:offset" />
      <path
         transform="translate(100,0)"
         d="m 13.0625,960.125 c -4.5749082,0 -8.28125,3.74594 -8.28125,8.3125 l 0,32.6875 a 1.4734047,1.4734047 0 0 0 1.46875,1.4688 l 83.5,0 a 1.4734047,1.4734047 0 0 0 1.46875,-1.4688 l 0,-32.6875 c 0,-4.56663 -3.706539,-8.3125 -8.28125,-8.3125 l -69.875,0 z m -6.96875,44.0312 a 1.4734047,1.4734047 0 0 0 -1.3125,1.4688 l 0,32.6875 c 0,4.5666 3.7146564,8.2813 8.28125,8.2813 l 32.6875,0 a 1.4734047,1.4734047 0 0 0 1.46875,-1.4688 l 0,-39.5 A 1.4734047,1.4734047 0 0 0 45.75,1004.1562 l -39.5,0 a 1.4734047,1.4734047 0 0 0 -0.15625,0 z m 44,0 a 1.4734047,1.4734047 0 0 0 -1.3125,1.4688 l 0,39.5 a 1.4734047,1.4734047 0 0 0 1.46875,1.4688 l 32.6875,0 c 4.566783,0 8.28125,-3.7147 8.28125,-8.2813 l 0,-32.6875 A 1.4734047,1.4734047 0 0 0 89.75,1004.1562 l -39.5,0 a 1.4734047,1.4734047 0 0 0 -0.15625,0 z"
         id="path4284"
         style="opacity:0.16000001;fill:#000000;fill-opacity:1;stroke:none"
         inkscape:original="M 13.0625 961.59375 C 9.28479 961.59375 6.25 964.66 6.25 968.4375 L 6.25 1001.125 L 89.75 1001.125 L 89.75 968.4375 C 89.75 964.66 86.71496 961.59375 82.9375 961.59375 L 13.0625 961.59375 z M 6.25 1005.625 L 6.25 1038.3125 C 6.25 1042.09 9.28503 1045.125 13.0625 1045.125 L 45.75 1045.125 L 45.75 1005.625 L 6.25 1005.625 z M 50.25 1005.625 L 50.25 1045.125 L 82.9375 1045.125 C 86.71521 1045.125 89.75 1042.09 89.75 1038.3125 L 89.75 1005.625 L 50.25 1005.625 z "
         inkscape:radius="1.4732574"
         sodipodi:type="inkscape:offset" />
      <path
         transform="translate(100,0)"
         d="m 13.0625,960.53125 c -4.3557166,0 -7.875,3.55664 -7.875,7.90625 l 0,32.6875 a 1.0682885,1.0682885 0 0 0 1.0625,1.0625 l 83.5,0 a 1.0682885,1.0682885 0 0 0 1.0625,-1.0625 l 0,-32.6875 c 0,-4.34966 -3.519495,-7.90625 -7.875,-7.90625 l -69.875,0 z m -6.90625,44.03125 a 1.0682885,1.0682885 0 0 0 -0.96875,1.0625 l 0,32.6875 c 0,4.3497 3.5253779,7.875 7.875,7.875 l 32.6875,0 a 1.0682885,1.0682885 0 0 0 1.0625,-1.0625 l 0,-39.5 a 1.0682885,1.0682885 0 0 0 -1.0625,-1.0625 l -39.5,0 a 1.0682885,1.0682885 0 0 0 -0.09375,0 z m 44,0 a 1.0682885,1.0682885 0 0 0 -0.96875,1.0625 l 0,39.5 a 1.0682885,1.0682885 0 0 0 1.0625,1.0625 l 32.6875,0 c 4.349826,0 7.875,-3.5254 7.875,-7.875 l 0,-32.6875 a 1.0682885,1.0682885 0 0 0 -1.0625,-1.0625 l -39.5,0 a 1.0682885,1.0682885 0 0 0 -0.09375,0 z"
         id="path4320"
         style="opacity:0.2;fill:#000000;fill-opacity:1;stroke:none"
         inkscape:original="M 13.0625 961.59375 C 9.28479 961.59375 6.25 964.66 6.25 968.4375 L 6.25 1001.125 L 89.75 1001.125 L 89.75 968.4375 C 89.75 964.66 86.71496 961.59375 82.9375 961.59375 L 13.0625 961.59375 z M 6.25 1005.625 L 6.25 1038.3125 C 6.25 1042.09 9.28503 1045.125 13.0625 1045.125 L 45.75 1045.125 L 45.75 1005.625 L 6.25 1005.625 z M 50.25 1005.625 L 50.25 1045.125 L 82.9375 1045.125 C 86.71521 1045.125 89.75 1042.09 89.75 1038.3125 L 89.75 1005.625 L 50.25 1005.625 z "
         inkscape:radius="1.0681816"
         sodipodi:type="inkscape:offset" />
      <path
         transform="translate(100,0)"
         d="m 13.0625,960.9375 c -4.1335468,0 -7.46875,3.37029 -7.46875,7.5 l 0,32.6875 a 0.65766789,0.65766789 0 0 0 0.65625,0.6562 l 83.5,0 a 0.65766789,0.65766789 0 0 0 0.65625,-0.6562 l 0,-32.6875 c 0,-4.12973 -3.33543,-7.5 -7.46875,-7.5 l -69.875,0 z m -6.9375,44.0313 a 0.65766789,0.65766789 0 0 0 -0.53125,0.6562 l 0,32.6875 c 0,4.1297 3.3390473,7.4687 7.46875,7.4687 l 32.6875,0 a 0.65766789,0.65766789 0 0 0 0.65625,-0.6562 l 0,-39.5 A 0.65766789,0.65766789 0 0 0 45.75,1004.9688 l -39.5,0 a 0.65766789,0.65766789 0 0 0 -0.125,0 z m 44,0 a 0.65766789,0.65766789 0 0 0 -0.53125,0.6562 l 0,39.5 a 0.65766789,0.65766789 0 0 0 0.65625,0.6562 l 32.6875,0 c 4.12992,0 7.46875,-3.339 7.46875,-7.4687 l 0,-32.6875 A 0.65766789,0.65766789 0 0 0 89.75,1004.9688 l -39.5,0 a 0.65766789,0.65766789 0 0 0 -0.125,0 z"
         id="path4329"
         style="opacity:0.3;fill:#000000;fill-opacity:1;stroke:none"
         inkscape:original="M 13.0625 961.59375 C 9.28479 961.59375 6.25 964.66 6.25 968.4375 L 6.25 1001.125 L 89.75 1001.125 L 89.75 968.4375 C 89.75 964.66 86.71496 961.59375 82.9375 961.59375 L 13.0625 961.59375 z M 6.25 1005.625 L 6.25 1038.3125 C 6.25 1042.09 9.28503 1045.125 13.0625 1045.125 L 45.75 1045.125 L 45.75 1005.625 L 6.25 1005.625 z M 50.25 1005.625 L 50.25 1045.125 L 82.9375 1045.125 C 86.71521 1045.125 89.75 1042.09 89.75 1038.3125 L 89.75 1005.625 L 50.25 1005.625 z "
         inkscape:radius="0.65760213"
         sodipodi:type="inkscape:offset" />
    </g>
    <g
       style="font-size:40px;font-style:normal;font-weight:normal;line-height:125%;letter-spacing:0px;word-spacing:0px;fill:#000000;fill-opacity:1;stroke:none;font-family:Sans"
       id="text4124-60-5"
       transform="translate(0,9.3691654)" />
    <g
       style="font-size:14.05975628px;font-style:normal;font-weight:normal;line-height:125%;letter-spacing:0px;word-spacing:0px;fill:#000000;fill-opacity:1;stroke:none;font-family:Sans"
       id="text4128-1-4"
       transform="translate(0,9.3691654)" />
    <g
       style="font-size:40px;font-style:normal;font-weight:normal;line-height:125%;letter-spacing:0px;word-spacing:0px;fill:#000000;fill-opacity:1;stroke:none;font-family:Sans"
       id="text4124-6-4-2"
       transform="translate(0,9.3691654)" />
    <g
       style="font-size:40px;font-style:normal;font-weight:normal;line-height:125%;letter-spacing:0px;word-spacing:0px;fill:#000000;fill-opacity:1;stroke:none;font-family:Sans"
       id="text4124-60-7"
       transform="translate(0,9.3691654)" />
    <g
       style="font-size:14.05975628px;font-style:normal;font-weight:normal;line-height:125%;letter-spacing:0px;word-spacing:0px;fill:#000000;fill-opacity:1;stroke:none;font-family:Sans"
       id="text4128-1-2"
       transform="translate(0,9.3691654)" />
    <g
       style="font-size:40px;font-style:normal;font-weight:normal;line-height:125%;letter-spacing:0px;word-spacing:0px;fill:#000000;fill-opacity:1;stroke:none;font-family:Sans"
       id="text4124-6-4-1"
       transform="translate(0,9.3691654)" />
    <path
       id="rect4007"
       style="fill:url(#radialGradient3094);fill-opacity:1;stroke:#404040;stroke-width:0.5;stroke-linecap:round;stroke-linejoin:round;stroke-miterlimit:4;stroke-opacity:1;stroke-dasharray:none"
       d="m 13.063527,1045.1173 c -3.777465,0 -6.81853,-3.0411 -6.81853,-6.8186 l 0.0037,-32.6873 39.502074,0 0,39.5021 z"
       inkscape:connector-curvature="0"
       sodipodi:nodetypes="cccccc" />
    <path
       id="rect4007-8"
       style="fill:url(#radialGradient4402-6);fill-opacity:1;stroke:#404040;stroke-width:0.5;stroke-linecap:round;stroke-linejoin:round;stroke-miterlimit:4;stroke-opacity:1;stroke-dasharray:none"
       d="m 50.248735,1045.1173 0,-39.502 39.502075,0 0.004,32.6834 c 0,3.7775 -3.041272,6.8186 -6.818986,6.8186 z"
       inkscape:connector-curvature="0"
       sodipodi:nodetypes="cccccc" />
    <path
       id="rect4007-8-6"
       style="fill:url(#radialGradient4410-2);fill-opacity:1;stroke:#404040;stroke-width:0.5;stroke-linecap:round;stroke-linejoin:round;stroke-miterlimit:4;stroke-opacity:1;stroke-dasharray:none"
       d="m 89.749872,1001.1126 -83.500157,0 -0.0047,-32.6862 c 0,-3.7775 3.041272,-6.8186 6.818986,-6.8186 l 69.872252,0 c 3.777466,0 6.81853,3.0411 6.81853,6.8186 z"
       inkscape:connector-curvature="0"
       sodipodi:nodetypes="ccccccc" />
    <path
       id="rect4007-8-6-6"
       style="opacity:0.5;fill:url(#radialGradient4402-4-6);fill-opacity:1;stroke:#404040;stroke-width:0.75;stroke-linejoin:round;stroke-miterlimit:4;stroke-opacity:1;stroke-dasharray:none"
       d="m 89.750158,1001.1126 -83.500158,0 -0.005,-32.6862 c 0,-3.7775 3.04127,-6.8186 6.818989,-6.8186 l 69.872251,0 c 3.777469,0 6.818529,3.0411 6.818529,6.8186 z"
       inkscape:connector-curvature="0"
       sodipodi:nodetypes="ccccccc" />
    <path
       id="rect4007-0"
       style="opacity:0.5;fill:url(#radialGradient4442-1);fill-opacity:1;stroke:#404040;stroke-width:0.75;stroke-linecap:round;stroke-linejoin:round;stroke-miterlimit:4;stroke-opacity:1;stroke-dasharray:none"
       d="m 13.063527,1045.1173 c -3.77747,0 -6.81853,-3.0411 -6.81853,-6.8186 l 0.004,-32.6873 39.502068,0 0,39.5021 z"
       inkscape:connector-curvature="0"
       sodipodi:nodetypes="cccccc" />
    <path
       id="rect4007-8-5"
       style="opacity:0.5;fill:url(#radialGradient4476-1);fill-opacity:1;stroke:#404040;stroke-width:0.75;stroke-linecap:round;stroke-linejoin:round;stroke-miterlimit:4;stroke-opacity:1;stroke-dasharray:none"
       d="m 50.248737,1045.1173 0,-39.502 39.50207,0 0.004,32.6834 c 0,3.7775 -3.04127,6.8186 -6.818979,6.8186 z"
       inkscape:connector-curvature="0"
       sodipodi:nodetypes="cccccc" />
    <rect
       style="opacity:0.33000004;fill:#ffffff;fill-opacity:1;stroke:none"
       id="rect3081"
       width="96"
       height="64"
       x="0"
       y="988.36218" />
    <g
       id="g4282"
       transform="translate(-50,30.405183)">
      <path
         transform="translate(49.999828,0)"
         d="m 47.625,981.125 a 1.5160182,1.5160182 0 0 0 -1.3125,1.5 l 0,5.25 -11.625,0 a 1.5160182,1.5160182 0 0 0 -1.53125,1.53125 l 0,11.62495 a 1.5160182,1.5160182 0 0 0 1.53125,1.5313 l 11.625,0 0,5.2813 a 1.5160182,1.5160182 0 0 0 2.5625,1.0937 l 13.46875,-12.625 a 1.5160182,1.5160182 0 0 0 0,-2.1875 L 48.875,981.53125 a 1.5160182,1.5160182 0 0 0 -1.25,-0.40625 z"
         inkscape:href="#rect3060-6-3-7"
         id="path4280"
         style="opacity:0.07999998;fill:#000000;fill-opacity:1;stroke:#404040;stroke-width:0;stroke-linecap:round;stroke-linejoin:round;stroke-miterlimit:4;stroke-opacity:1;stroke-dasharray:none"
         xlink:href="#rect3060-6-3-7"
         inkscape:original="M 47.84375 982.625 L 47.84375 989.40625 L 34.6875 989.40625 L 34.6875 1001.0312 L 47.84375 1001.0312 L 47.84375 1007.8438 L 61.3125 995.21875 L 47.84375 982.625 z "
         inkscape:radius="1.5158666"
         sodipodi:type="inkscape:offset" />
      <path
         transform="translate(50.00025,0)"
         d="M 47.65625,981.40625 A 1.228053,1.228053 0 0 0 46.625,982.625 l 0,5.5625 -11.9375,0 a 1.228053,1.228053 0 0 0 -1.21875,1.21875 l 0,11.62495 a 1.228053,1.228053 0 0 0 1.21875,1.2188 l 11.9375,0 0,5.5938 a 1.228053,1.228053 0 0 0 2.0625,0.9062 l 13.46875,-12.625 a 1.228053,1.228053 0 0 0 0,-1.8125 L 48.6875,981.71875 a 1.228053,1.228053 0 0 0 -1.03125,-0.3125 z"
         inkscape:href="#rect3060-6-3-6"
         id="path4271"
         style="opacity:0.1;fill:#000000;fill-opacity:1;stroke:#404040;stroke-width:0;stroke-linecap:round;stroke-linejoin:round;stroke-miterlimit:4;stroke-opacity:1;stroke-dasharray:none"
         xlink:href="#rect3060-6-3-6"
         inkscape:original="M 47.84375 982.625 L 47.84375 989.40625 L 34.6875 989.40625 L 34.6875 1001.0312 L 47.84375 1001.0312 L 47.84375 1007.8438 L 61.3125 995.21875 L 47.84375 982.625 z "
         inkscape:radius="1.2279302"
         sodipodi:type="inkscape:offset" />
      <path
         transform="translate(49.99976,0)"
         d="M 47.71875,981.71875 A 0.90201957,0.90201957 0 0 0 46.9375,982.625 l 0,5.875 -12.25,0 a 0.90201957,0.90201957 0 0 0 -0.90625,0.90625 l 0,11.62495 a 0.90201957,0.90201957 0 0 0 0.90625,0.9063 l 12.25,0 0,5.9063 a 0.90201957,0.90201957 0 0 0 1.53125,0.6562 L 61.9375,995.875 a 0.90201957,0.90201957 0 0 0 0,-1.3125 L 48.46875,981.96875 a 0.90201957,0.90201957 0 0 0 -0.75,-0.25 z"
         inkscape:href="#rect3060-6-3-2"
         id="path4262"
         style="opacity:0.16000001;fill:#000000;fill-opacity:1;stroke:#404040;stroke-width:0;stroke-linecap:round;stroke-linejoin:round;stroke-miterlimit:4;stroke-opacity:1;stroke-dasharray:none"
         xlink:href="#rect3060-6-3-2"
         inkscape:original="M 47.84375 982.625 L 47.84375 989.40625 L 34.6875 989.40625 L 34.6875 1001.0312 L 47.84375 1001.0312 L 47.84375 1007.8438 L 61.3125 995.21875 L 47.84375 982.625 z "
         inkscape:radius="0.90192938"
         sodipodi:type="inkscape:offset" />
      <path
         transform="translate(50.00025,0)"
         d="M 47.6875,982.03125 A 0.60682595,0.60682595 0 0 0 47.25,982.625 l 0,6.1875 -12.5625,0 a 0.60682595,0.60682595 0 0 0 -0.59375,0.59375 l 0,11.62495 a 0.60682595,0.60682595 0 0 0 0.59375,0.5938 l 12.5625,0 0,6.2188 a 0.60682595,0.60682595 0 0 0 1,0.4374 l 13.46875,-12.62495 a 0.60682595,0.60682595 0 0 0 0,-0.875 L 48.25,982.1875 a 0.60682595,0.60682595 0 0 0 -0.5625,-0.15625 z"
         inkscape:href="#rect3060-6-3"
         id="path4246"
         style="opacity:0.23999999;fill:#000000;fill-opacity:1;stroke:#404040;stroke-width:0;stroke-linecap:round;stroke-linejoin:round;stroke-miterlimit:4;stroke-opacity:1;stroke-dasharray:none"
         xlink:href="#rect3060-6-3"
         inkscape:original="M 47.84375 982.625 L 47.84375 989.40625 L 34.6875 989.40625 L 34.6875 1001.0312 L 47.84375 1001.0312 L 47.84375 1007.8438 L 61.3125 995.21875 L 47.84375 982.625 z "
         inkscape:radius="0.60676527"
         sodipodi:type="inkscape:offset" />
    </g>
    <path
       style="fill:url(#radialGradient4107);fill-opacity:1;stroke:#404040;stroke-width:0.5;stroke-linecap:round;stroke-linejoin:round;stroke-miterlimit:4;stroke-opacity:1;stroke-dasharray:none"
       d="m 34.67382,1019.8258 13.16847,0 0,-6.808 13.48389,12.6165 -13.48389,12.6165 0,-6.808 -13.16847,0 z"
       id="rect3060-6"
       inkscape:connector-curvature="0"
       sodipodi:nodetypes="cccccccc" />
    <path
       style="font-size:14.05975628px;font-style:normal;font-weight:normal;line-height:125%;letter-spacing:0px;word-spacing:0px;fill:url(#linearGradient4089);fill-opacity:1;stroke:#5c5c5c;stroke-width:0.03417522;stroke-miterlimit:4;stroke-opacity:1;stroke-dasharray:none;font-family:Sans"
       sodipodi:nodetypes="ccscsccccscsccsscscscscccccccsscccccsscccccscccccccsccccssscsccscscccccccccscsccscsccccccccccsscscsscsccccccccsccscccscscssccccccscscsccccsccccccscccsscsssccccscscsccccssscccscss"
       inkscape:connector-curvature="0"
       id="path3279-2"
       d="m 39.595856,989.37019 c -1.71879,10e-5 -3.063395,0.5273 -4.052074,1.5819 -0.988685,1.04955 -1.484545,2.49455 -1.484544,4.31973 -10e-7,1.82014 0.495859,3.25302 1.484544,4.30761 0.988679,1.04957 2.333284,1.56987 4.052074,1.56987 0.669255,0 1.312152,-0.086 1.91044,-0.2678 0.603341,-0.1825 1.166127,-0.4625 1.703575,-0.8275 l 0,-1.59403 c -0.517168,0.48173 -1.066771,0.83253 -1.654901,1.07087 -0.583078,0.23834 -1.202652,0.36506 -1.861764,0.36506 -1.117521,0 -2.010548,-0.30202 -2.67705,-0.88832 0.165874,0.0667 0.349433,0.10952 0.559747,0.10952 0.427709,0 0.765823,-0.13579 1.009977,-0.41374 0.244151,-0.27986 0.36505,-0.66592 0.365053,-1.15603 -3e-6,-0.49184 -0.120902,-0.87799 -0.365053,-1.15594 -0.244154,-0.27805 -0.582268,-0.42586 -1.009977,-0.42586 -0.429494,0 -0.765826,0.14781 -1.009976,0.42586 -0.242371,0.27795 -0.365051,0.6641 -0.365051,1.15594 0,0.18378 0.02675,0.34473 0.06084,0.4989 -0.387867,-0.72815 -0.584086,-1.65262 -0.584085,-2.77441 -3e-6,-1.50076 0.344769,-2.65266 1.034313,-3.44356 0.68954,-0.79605 1.683291,-1.19251 2.981259,-1.19251 0.659113,0 1.278686,0.11447 1.861763,0.35281 0.588132,0.23835 1.137735,0.60136 1.654902,1.08299 l 0,-1.61837 c -0.527308,-0.35998 -1.088069,-0.6257 -1.691408,-0.80312 -0.598284,-0.18257 -1.243209,-0.27977 -1.922604,-0.27987 z m 9.442673,0.0728 c -1.242194,10e-5 -2.22276,0.28593 -2.932582,0.86394 -0.704752,0.57802 -1.046483,1.36902 -1.046479,2.3729 -4e-6,0.86698 0.25452,1.54533 0.766607,2.03211 0.512085,0.48668 1.336491,0.84263 2.482351,1.07077 l 0.936966,0.18257 c 0.780803,0.15721 1.339532,0.3914 1.679241,0.70572 0.344763,0.31442 0.523234,0.75655 0.52324,1.31426 -6e-6,0.63874 -0.241347,1.12755 -0.717937,1.47228 -0.4766,0.34493 -1.154988,0.52336 -2.03212,0.52336 -0.578002,0 -1.16614,-0.09 -1.76442,-0.26765 -0.440581,-0.13073 -0.884191,-0.31138 -1.338519,-0.53548 l 0,-3.13945 -0.498907,0 0,4.46568 c 0.648981,0.2383 1.28275,0.4139 1.886103,0.5354 0.608416,0.1216 1.1783,0.1826 1.715743,0.1826 1.424711,0 2.501612,-0.284 3.236794,-0.8519 0.740236,-0.56763 1.107315,-1.40632 1.107322,-2.50659 -7e-6,-0.92264 -0.267713,-1.65484 -0.815281,-2.20245 -0.144701,-0.14741 -0.311282,-0.27795 -0.498904,-0.40151 0.110318,-0.0576 0.211889,-0.11862 0.292041,-0.20692 0.226326,-0.24774 0.34071,-0.63409 0.340714,-1.14381 l 0,-3.89388 c -0.578007,-0.19267 -1.138767,-0.32957 -1.691408,-0.42596 -0.552654,-0.096 -1.0982,-0.14589 -1.630565,-0.14599 z m 4.319783,0.68148 0,4.16161 0.498903,0 0,-1.69152 c -2e-6,-0.29219 0.06577,-0.52427 0.21903,-0.6935 0.153262,-0.16934 0.367219,-0.25562 0.632757,-0.25562 0.220985,0 0.388411,0.0657 0.498904,0.20692 0.110492,0.14074 0.170356,0.3615 0.170356,0.6449 l 0,1.78882 0.486738,0 0,-1.81317 c -4e-6,-0.41343 -0.09127,-0.72492 -0.267706,-0.93699 -0.176431,-0.21379 -0.434827,-0.31634 -0.778776,-0.31634 -0.208511,0 -0.387186,0.0445 -0.547576,0.13387 -0.158612,0.0889 -0.296109,0.22157 -0.413727,0.40151 l 0,-1.63049 z m 3.480159,0.31634 0,0.85182 -0.352884,0 0,0.37716 0.352884,0 0,1.6306 c 0,0.37423 0.07468,0.63621 0.219033,0.77877 0.144353,0.14084 0.411349,0.20692 0.790945,0.20692 l 0.498903,0 0,-0.41374 -0.498903,0 c -0.204946,0 -0.346008,-0.0283 -0.413727,-0.097 -0.06594,-0.0697 -0.09735,-0.23046 -0.09735,-0.47456 l 0,-1.6306 1.009978,0 0,-0.37716 -1.009978,0 0,-0.85182 z m -7.629581,0.24339 c 0.481658,0 0.991716,0.0697 1.508881,0.20682 0.369392,0.098 0.752969,0.24349 1.155997,0.41373 l 0,0.43809 c -0.101586,-0.17641 -0.230782,-0.3021 -0.389389,-0.38939 -0.158611,-0.0879 -0.350932,-0.13387 -0.571916,-0.13387 -0.36712,0 -0.663744,0.13397 -0.888293,0.41374 -0.224547,0.27976 -0.340714,0.65612 -0.340714,1.11946 0,0.46153 0.116167,0.82747 0.340714,1.10734 0.224549,0.27976 0.521173,0.42596 0.888293,0.42596 0.220984,0 0.413305,-0.0465 0.571916,-0.13397 0.158607,-0.0879 0.287803,-0.21288 0.389389,-0.38929 l 0,0.24329 c -4e-6,0.34039 -0.08298,0.58701 -0.243369,0.75443 -0.100247,0.10588 -0.237962,0.17934 -0.401559,0.21904 -0.430848,-0.20176 -0.941449,-0.3619 -1.533217,-0.47446 l -0.827449,-0.15832 0,-3.05417 -0.486734,0 0,2.94475 c -0.627188,-0.14448 -1.084907,-0.32412 -1.338525,-0.53538 -0.299143,-0.25865 -0.450234,-0.64187 -0.450231,-1.14391 -3e-6,-0.59823 0.230184,-1.06269 0.681429,-1.38711 0.456311,-0.32452 1.098194,-0.48678 1.934777,-0.48678 z m 1.825257,0.94912 c 0.265534,0 0.474452,0.096 0.620587,0.29209 0.147915,0.196 0.21903,0.47092 0.219034,0.82737 -4e-6,0.35463 -0.07112,0.63147 -0.219034,0.82747 -0.146135,0.19601 -0.355053,0.29209 -0.620587,0.29209 -0.263758,0 -0.472671,-0.096 -0.620588,-0.29209 -0.146137,-0.196 -0.219032,-0.47284 -0.219032,-0.82747 0,-0.35645 0.07289,-0.63137 0.219032,-0.82737 0.147917,-0.19611 0.35683,-0.29209 0.620588,-0.29209 z m -9.832061,4.33196 c -0.215639,0 -0.402918,0.0465 -0.559746,0.13387 -0.15683,0.0879 -0.289284,0.23015 -0.401558,0.41373 l 0,-0.47456 -0.498904,0 0,2.99335 0.498904,0 0,-1.69142 c 0,-0.29047 0.07111,-0.51204 0.219032,-0.68137 0.147913,-0.17105 0.344967,-0.25552 0.596251,-0.25552 0.212071,0 0.372981,0.0677 0.474568,0.20682 0.101578,0.1373 0.158186,0.34402 0.158186,0.63278 l 0,1.78861 0.487001,0 0,-1.69132 c -3e-6,-0.29219 0.08302,-0.52426 0.230934,-0.6935 0.147916,-0.16933 0.341405,-0.24339 0.596253,-0.24339 0.208507,0 0.360815,0.0677 0.462398,0.20682 0.101579,0.13902 0.158187,0.34584 0.15819,0.63278 l 0,1.78871 0.498904,0 0,-1.80094 c -4e-6,-0.40272 -0.08624,-0.71956 -0.255536,-0.93689 -0.169307,-0.21925 -0.418235,-0.32856 -0.730102,-0.32856 -0.231681,0 -0.425171,0.0535 -0.596251,0.15822 -0.171088,0.10507 -0.327269,0.27794 -0.450232,0.4989 -0.07307,-0.21035 -0.175285,-0.37625 -0.328547,-0.48678 -0.151485,-0.11053 -0.34233,-0.17034 -0.559745,-0.17034 z m 6.704786,0 c -0.466923,0 -0.826056,0.14609 -1.095157,0.42586 -0.26732,0.27976 -0.401559,0.66773 -0.401559,1.15603 0,0.48123 0.123852,0.86052 0.389391,1.14382 0.265539,0.2834 0.632105,0.42586 1.082985,0.42586 0.165736,0 0.316265,-0.0172 0.462401,-0.0485 0.147915,-0.0313 0.288668,-0.0818 0.425891,-0.14599 l 0,-0.45021 c -0.139006,0.0768 -0.272937,0.13114 -0.413724,0.17034 -0.139008,0.0374 -0.283323,0.0606 -0.425891,0.0606 -0.319006,0 -0.565844,-0.10275 -0.742273,-0.30411 -0.176433,-0.20318 -0.267709,-0.48649 -0.267704,-0.85183 -5e-6,-0.36534 0.09127,-0.65046 0.267704,-0.85182 0.176429,-0.20318 0.423267,-0.30421 0.742273,-0.30421 0.142568,0 0.286883,0.0222 0.425891,0.0606 0.140787,0.0374 0.274718,0.094 0.413724,0.17034 l 0,-0.46233 c -0.135443,-0.0626 -0.269372,-0.11569 -0.413724,-0.1461 -0.144354,-0.0313 -0.29875,-0.0485 -0.450228,-0.0485 z m -10.330969,0.42586 c 0.261974,0 0.467322,0.096 0.620587,0.30421 0.153263,0.20672 0.2312,0.49719 0.2312,0.85182 -0.01545,0.67421 -0.310055,1.00297 -0.851787,1.15594 -0.265538,0 -0.467326,-0.11144 -0.620588,-0.31634 -0.151482,-0.20672 -0.231198,-0.48133 -0.231198,-0.8396 0,-0.35816 0.07794,-0.64682 0.231198,-0.85182 0.153262,-0.20672 0.356831,-0.30421 0.620588,-0.30421 z"
       clip-path="url(#clipPath4083)"
       transform="translate(1.8e-4,30.405626)" />
    <path
       style="fill:none;stroke:#404040;stroke-width:0.5;stroke-linecap:round;stroke-linejoin:round;stroke-miterlimit:4;stroke-opacity:1;stroke-dasharray:none"
       d="m 34.674,1019.8258 13.16848,0 0,-6.808 13.48388,12.6165 -13.48388,12.6165 0,-6.808 -13.16848,0 z"
       id="rect3060-6-9"
       inkscape:connector-curvature="0"
       sodipodi:nodetypes="cccccccc" />
  </g>
</svg>
